<?xml version="1.0" encoding="UTF-8"?>
<svg xmlns="http://www.w3.org/2000/svg" xmlns:xlink="http://www.w3.org/1999/xlink" width="74pt" height="62pt" viewBox="0 0 74 62" version="1.1">
<g id="surface1">
<path style=" stroke:none;fill-rule:nonzero;fill:rgb(68.627451%,61.176471%,85.490196%);fill-opacity:1;" d="M 15.707031 0.515625 C 19.371094 0.515625 22.230469 0.816406 24.285156 1.421875 C 26.378906 2.027344 27.886719 3.035156 28.816406 4.445312 C 29.742188 5.816406 30.203125 7.753906 30.203125 10.253906 C 30.203125 13.558594 29.722656 16.058594 28.753906 17.753906 C 27.789062 19.40625 25.976562 20.414062 23.316406 20.777344 L 23.316406 21.019531 C 26.339844 21.464844 28.410156 22.511719 29.539062 24.164062 C 30.707031 25.816406 31.292969 28.378906 31.292969 31.847656 C 31.292969 34.789062 30.769531 37.148438 29.722656 38.925781 C 28.714844 40.65625 27.082031 41.929688 24.828125 42.734375 C 22.574219 43.542969 19.550781 43.945312 15.765625 43.945312 C 11.015625 43.945312 5.820312 43.5625 0.179688 42.796875 L 0.542969 33.601562 C 5.214844 33.800781 9.082031 33.902344 12.140625 33.902344 C 13.914062 33.902344 15.222656 33.824219 16.070312 33.660156 C 16.914062 33.460938 17.5 33.078125 17.820312 32.511719 C 18.183594 31.90625 18.363281 30.960938 18.363281 29.667969 C 18.363281 28.015625 18.042969 26.90625 17.398438 26.34375 C 16.792969 25.738281 15.566406 25.457031 13.710938 25.496094 L 5.679688 25.617188 L 5.679688 17.632812 L 13.710938 17.632812 C 15 17.632812 15.949219 17.511719 16.550781 17.269531 C 17.15625 16.988281 17.539062 16.605469 17.699219 16.121094 C 17.902344 15.597656 18 14.851562 18 13.882812 C 18 12.511719 17.679688 11.605469 17.035156 11.160156 C 16.429688 10.714844 15.203125 10.496094 13.351562 10.496094 L 1.449219 10.496094 L 1.085938 1.664062 C 5.839844 0.898438 10.710938 0.515625 15.707031 0.515625 Z M 54.375 0.757812 C 59.328125 0.757812 63.175781 1.382812 65.914062 2.632812 C 68.691406 3.882812 70.707031 6.039062 71.953125 9.101562 C 73.203125 12.167969 73.828125 16.542969 73.828125 22.230469 C 73.828125 27.914062 73.203125 32.289062 71.953125 35.355469 C 70.707031 38.417969 68.691406 40.578125 65.914062 41.828125 C 63.175781 43.078125 59.328125 43.703125 54.375 43.703125 C 48.335938 43.703125 42.394531 43.5 36.554688 43.097656 L 36.554688 1.359375 C 43.640625 0.957031 49.582031 0.757812 54.375 0.757812 Z M 54.375 34.207031 C 55.90625 34.207031 57.054688 33.882812 57.816406 33.238281 C 58.625 32.550781 59.1875 31.382812 59.507812 29.730469 C 59.832031 28.035156 59.992188 25.535156 59.992188 22.230469 C 59.992188 18.921875 59.832031 16.441406 59.507812 14.789062 C 59.1875 13.09375 58.625 11.925781 57.816406 11.28125 C 57.054688 10.59375 55.90625 10.253906 54.375 10.253906 L 49.664062 10.253906 L 49.664062 34.144531 C 50.628906 34.1875 52.199219 34.207031 54.375 34.207031 Z M 4.21875 48.902344 C 5.21875 48.902344 5.996094 49.015625 6.546875 49.238281 C 7.101562 49.460938 7.5 49.851562 7.746094 50.402344 C 7.992188 50.945312 8.117188 51.714844 8.117188 52.714844 C 8.117188 53.71875 7.992188 54.492188 7.746094 55.046875 C 7.511719 55.589844 7.128906 55.972656 6.601562 56.195312 C 6.070312 56.417969 5.332031 56.53125 4.378906 56.53125 C 3.519531 56.53125 2.585938 56.484375 1.574219 56.390625 L 1.574219 61.242188 L 0.0234375 61.242188 L 0.0234375 49.0625 C 0.660156 48.992188 1.253906 48.949219 1.804688 48.9375 C 2.355469 48.914062 3.164062 48.902344 4.21875 48.902344 Z M 4.183594 55.1875 C 4.796875 55.175781 5.265625 55.101562 5.59375 54.957031 C 5.9375 54.816406 6.175781 54.578125 6.316406 54.234375 C 6.472656 53.882812 6.546875 53.375 6.546875 52.714844 C 6.546875 52.058594 6.472656 51.550781 6.316406 51.199219 C 6.175781 50.84375 5.9375 50.597656 5.59375 50.457031 C 5.265625 50.316406 4.796875 50.246094 4.183594 50.246094 C 2.902344 50.246094 2.035156 50.25 1.574219 50.261719 L 1.574219 55.1875 Z M 19.539062 61.242188 L 18.039062 61.242188 L 18.039062 52.363281 C 18.039062 51.808594 18.070312 51.34375 18.128906 50.96875 L 18.039062 50.96875 C 17.875 51.367188 17.664062 51.808594 17.40625 52.292969 L 12.011719 61.242188 L 10.421875 61.242188 L 10.421875 49.0625 L 11.921875 49.0625 L 11.921875 57.855469 C 11.921875 58.289062 11.894531 58.773438 11.835938 59.300781 L 11.90625 59.300781 C 12.082031 58.914062 12.308594 58.472656 12.59375 57.976562 L 17.933594 49.0625 L 19.539062 49.0625 Z M 29.984375 59.953125 L 30.054688 61.15625 C 28.972656 61.226562 27.238281 61.261719 24.851562 61.261719 C 24.125 61.261719 23.546875 61.074219 23.125 60.695312 C 22.714844 60.308594 22.507812 59.789062 22.507812 59.144531 L 22.507812 51.164062 C 22.507812 50.515625 22.71875 50.003906 23.144531 49.628906 C 23.566406 49.238281 24.136719 49.042969 24.851562 49.042969 C 27.238281 49.042969 28.972656 49.078125 30.054688 49.148438 L 29.984375 50.367188 L 25.101562 50.367188 C 24.734375 50.367188 24.472656 50.460938 24.308594 50.652344 C 24.140625 50.839844 24.058594 51.132812 24.058594 51.535156 L 24.058594 54.183594 L 29.296875 54.183594 L 29.296875 55.433594 L 24.058594 55.433594 L 24.058594 58.773438 C 24.058594 59.183594 24.140625 59.484375 24.308594 59.671875 C 24.472656 59.859375 24.734375 59.953125 25.101562 59.953125 Z M 40.890625 61.242188 L 39.339844 61.242188 L 39.339844 50.332031 L 36.90625 50.332031 C 36.496094 50.332031 36.183594 50.433594 35.972656 50.632812 C 35.761719 50.832031 35.636719 51.144531 35.601562 51.570312 L 35.566406 51.992188 C 35.367188 54.183594 35.195312 55.710938 35.054688 56.582031 C 34.914062 57.453125 34.671875 58.242188 34.332031 58.949219 C 33.625 60.492188 32.605469 61.261719 31.265625 61.261719 L 31.121094 60.0625 C 31.523438 59.929688 31.863281 59.753906 32.144531 59.53125 C 32.425781 59.296875 32.667969 58.960938 32.867188 58.523438 C 33.101562 58.007812 33.285156 57.476562 33.414062 56.9375 C 33.542969 56.394531 33.65625 55.710938 33.75 54.886719 C 33.84375 54.0625 33.957031 52.863281 34.085938 51.285156 C 34.226562 49.804688 35.03125 49.0625 36.5 49.0625 L 40.890625 49.0625 Z M 52.25 50.4375 L 48.320312 50.4375 L 48.320312 61.242188 L 46.769531 61.242188 L 46.769531 50.4375 L 42.855469 50.4375 L 42.855469 49.0625 L 52.25 49.0625 Z M 58.324219 48.832031 C 59.523438 48.832031 60.46875 49.03125 61.164062 49.433594 C 61.855469 49.820312 62.355469 50.472656 62.660156 51.390625 C 62.96875 52.296875 63.121094 53.550781 63.121094 55.152344 C 63.121094 56.753906 62.96875 58.011719 62.660156 58.929688 C 62.355469 59.835938 61.855469 60.492188 61.164062 60.890625 C 60.46875 61.277344 59.523438 61.472656 58.324219 61.472656 C 57.113281 61.472656 56.160156 61.277344 55.46875 60.890625 C 54.785156 60.492188 54.285156 59.835938 53.96875 58.929688 C 53.664062 58.011719 53.511719 56.753906 53.511719 55.152344 C 53.511719 53.550781 53.664062 52.296875 53.96875 51.390625 C 54.285156 50.472656 54.785156 49.820312 55.46875 49.433594 C 56.160156 49.03125 57.113281 48.832031 58.324219 48.832031 Z M 58.324219 50.226562 C 57.511719 50.226562 56.878906 50.378906 56.417969 50.6875 C 55.972656 50.992188 55.648438 51.5 55.449219 52.203125 C 55.25 52.910156 55.148438 53.894531 55.148438 55.152344 C 55.148438 56.414062 55.25 57.394531 55.449219 58.101562 C 55.648438 58.808594 55.972656 59.3125 56.417969 59.621094 C 56.878906 59.925781 57.511719 60.078125 58.324219 60.078125 C 59.136719 60.078125 59.765625 59.925781 60.210938 59.621094 C 60.667969 59.3125 61 58.808594 61.199219 58.101562 C 61.398438 57.394531 61.496094 56.414062 61.496094 55.152344 C 61.496094 53.894531 61.398438 52.910156 61.199219 52.203125 C 61 51.5 60.667969 50.992188 60.210938 50.6875 C 59.765625 50.378906 59.136719 50.226562 58.324219 50.226562 Z M 69.941406 48.902344 C 70.941406 48.902344 71.71875 49.015625 72.269531 49.238281 C 72.824219 49.460938 73.222656 49.851562 73.46875 50.402344 C 73.714844 50.945312 73.839844 51.714844 73.839844 52.714844 C 73.839844 53.71875 73.714844 54.492188 73.46875 55.046875 C 73.234375 55.589844 72.851562 55.972656 72.324219 56.195312 C 71.792969 56.417969 71.054688 56.53125 70.101562 56.53125 C 69.242188 56.53125 68.308594 56.484375 67.296875 56.390625 L 67.296875 61.242188 L 65.746094 61.242188 L 65.746094 49.0625 C 66.382812 48.992188 66.976562 48.949219 67.527344 48.9375 C 68.078125 48.914062 68.886719 48.902344 69.941406 48.902344 Z M 69.90625 55.1875 C 70.519531 55.175781 70.988281 55.101562 71.316406 54.957031 C 71.660156 54.816406 71.898438 54.578125 72.039062 54.234375 C 72.195312 53.882812 72.269531 53.375 72.269531 52.714844 C 72.269531 52.058594 72.195312 51.550781 72.039062 51.199219 C 71.898438 50.84375 71.660156 50.597656 71.316406 50.457031 C 70.988281 50.316406 70.519531 50.246094 69.90625 50.246094 C 68.625 50.246094 67.757812 50.25 67.296875 50.261719 L 67.296875 55.1875 Z M 69.90625 55.1875 "/>
</g>
</svg>
